<svg width="249" height="103" viewBox="0 0 249 103" fill="none" xmlns="http://www.w3.org/2000/svg">
<path d="M3.64645 80.8536C3.84171 81.0488 4.15829 81.0488 4.35355 80.8536L7.53553 77.6716C7.7308 77.4763 7.7308 77.1597 7.53554 76.9645C7.34027 76.7692 7.02369 76.7692 6.82843 76.9645L4 79.7929L1.17157 76.9645C0.976312 76.7692 0.65973 76.7692 0.464467 76.9645C0.269205 77.1597 0.269205 77.4763 0.464467 77.6716L3.64645 80.8536ZM3.50003 2.18543e-08L3.5 80.5L4.5 80.5L4.50003 -2.18572e-08L3.50003 2.18543e-08Z" fill="white"/>
<path d="M245.354 14.6464C245.158 14.4512 244.842 14.4512 244.646 14.6464L241.464 17.8284C241.269 18.0237 241.269 18.3403 241.464 18.5355C241.66 18.7308 241.976 18.7308 242.172 18.5355L245 15.7071L247.828 18.5355C248.024 18.7308 248.34 18.7308 248.536 18.5355C248.731 18.3403 248.731 18.0237 248.536 17.8284L245.354 14.6464ZM245.5 102.5L245.5 15L244.5 15L244.5 102.5L245.5 102.5Z" fill="white"/>
</svg>
