 <svg width="375" height="31" viewBox="0 0 375 31" fill="none" xmlns="http://www.w3.org/2000/svg">
    <path d="M16.8438 30H0.925781V1.44531H16.8438V4.39453H4.24609V13.5938H16.082V16.5234H4.24609V27.0312H16.8438V30ZM59.5 1.44531H63.0742L52.7812 30H49.5L39.2656 1.44531H42.7812L49.3438 19.9219C50.099 22.0443 50.6979 24.1081 51.1406 26.1133C51.6094 24.0039 52.2214 21.901 52.9766 19.8047L59.5 1.44531ZM111.805 15.6836C111.805 20.2539 110.646 23.8477 108.328 26.4648C106.023 29.082 102.814 30.3906 98.6992 30.3906C94.4935 30.3906 91.2448 29.1081 88.9531 26.543C86.6745 23.9648 85.5352 20.332 85.5352 15.6445C85.5352 10.9961 86.681 7.39583 88.9727 4.84375C91.2643 2.27865 94.5195 0.996094 98.7383 0.996094C102.84 0.996094 106.043 2.29818 108.348 4.90234C110.652 7.50651 111.805 11.1003 111.805 15.6836ZM89.0508 15.6836C89.0508 19.5508 89.8711 22.487 91.5117 24.4922C93.1654 26.4844 95.5612 27.4805 98.6992 27.4805C101.863 27.4805 104.253 26.4844 105.867 24.4922C107.482 22.5 108.289 19.5638 108.289 15.6836C108.289 11.8424 107.482 8.93229 105.867 6.95312C104.266 4.96094 101.889 3.96484 98.7383 3.96484C95.5742 3.96484 93.1654 4.96745 91.5117 6.97266C89.8711 8.96484 89.0508 11.8685 89.0508 15.6836ZM138.191 30V1.44531H141.512V26.9922H154.109V30H138.191ZM200.535 1.44531V19.9219C200.535 23.1771 199.552 25.7357 197.586 27.5977C195.62 29.4596 192.918 30.3906 189.48 30.3906C186.043 30.3906 183.38 29.4531 181.492 27.5781C179.617 25.7031 178.68 23.125 178.68 19.8438V1.44531H182V20.0781C182 22.4609 182.651 24.2904 183.953 25.5664C185.255 26.8424 187.169 27.4805 189.695 27.4805C192.104 27.4805 193.96 26.8424 195.262 25.5664C196.564 24.2773 197.215 22.4349 197.215 20.0391V1.44531H200.535ZM236.902 30H233.582V4.39453H224.539V1.44531H245.945V4.39453H236.902V30ZM270.262 30V1.44531H273.582V30H270.262ZM326.219 15.6836C326.219 20.2539 325.06 23.8477 322.742 26.4648C320.438 29.082 317.228 30.3906 313.113 30.3906C308.908 30.3906 305.659 29.1081 303.367 26.543C301.089 23.9648 299.949 20.332 299.949 15.6445C299.949 10.9961 301.095 7.39583 303.387 4.84375C305.678 2.27865 308.934 0.996094 313.152 0.996094C317.254 0.996094 320.457 2.29818 322.762 4.90234C325.066 7.50651 326.219 11.1003 326.219 15.6836ZM303.465 15.6836C303.465 19.5508 304.285 22.487 305.926 24.4922C307.579 26.4844 309.975 27.4805 313.113 27.4805C316.277 27.4805 318.667 26.4844 320.281 24.4922C321.896 22.5 322.703 19.5638 322.703 15.6836C322.703 11.8424 321.896 8.93229 320.281 6.95312C318.68 4.96094 316.303 3.96484 313.152 3.96484C309.988 3.96484 307.579 4.96745 305.926 6.97266C304.285 8.96484 303.465 11.8685 303.465 15.6836ZM374.91 30H371.121L355.516 6.03516H355.359C355.568 8.84766 355.672 11.4258 355.672 13.7695V30H352.605V1.44531H356.355L371.922 25.3125H372.078C372.052 24.9609 371.993 23.8346 371.902 21.9336C371.811 20.0195 371.779 18.6523 371.805 17.832V1.44531H374.91V30Z" fill="url(#paint0_linear)" />
    <defs>
        <linearGradient id="paint0_linear" x1="-3" y1="41" x2="188.237" y2="41" gradientUnits="userSpaceOnUse">
        <stop stop-color="#0096E8" />
        <stop offset="1" stop-color="#D2267B" />
        </linearGradient>
    </defs>
</svg>