<svg width="76" height="107" viewBox="0 0 76 107" fill="none" xmlns="http://www.w3.org/2000/svg">
<path d="M35.1128 42.9956C36.0132 44.3462 37.3638 45.6969 38.7144 46.5973C40.065 47.4978 41.1904 47.7229 42.3159 47.7229C42.7661 47.7229 43.2163 47.7229 43.8916 47.4978C46.3677 46.5973 47.7183 43.896 48.6187 42.0952C51.3199 35.567 50.8697 26.5627 43.6665 21.1601L38.2642 16.883C37.3638 15.9826 36.0132 16.2077 35.1128 17.1081L34.8877 17.3332V17.7835C34.6626 18.4588 30.3857 35.567 35.1128 42.9956ZM42.0908 40.5194C39.3897 38.0432 38.9395 31.7402 40.2901 27.0129C43.6665 29.9393 44.1167 36.4674 42.0908 40.5194Z" fill="url(#paint0_linear)"/>
<path d="M74.7329 99.2727C74.5078 98.8225 73.8325 98.8225 73.3823 98.8225H61.2269L51.0975 65.9567C59.6513 58.0779 73.3823 43.4459 72.2568 29.2641C72.2568 21.8355 68.6552 11.0303 65.0536 3.15152C64.8285 2.92641 64.8285 2.7013 64.6034 2.25108C64.3783 1.57576 63.4779 -0.450217 61.9022 0.225108C59.2011 0.675325 59.4262 3.60173 59.6513 5.4026C59.6513 5.85282 59.6513 6.30303 59.6513 6.75325C59.8764 10.8052 61.0018 13.9567 61.9022 16.8831C62.5775 18.0087 63.0277 19.1342 63.4779 20.2597L48.8465 9.00433H48.1712H47.4959L46.8206 9.22944L45.9202 10.1299L46.1453 10.8052C46.5955 12.6061 47.2708 14.8571 48.3963 17.1082C50.6473 21.6104 57.4003 26.1126 62.5775 29.4892C63.2528 29.9394 63.9281 30.3896 64.6034 30.8398C63.4779 43.8961 51.7728 54.9264 40.968 61.2295C31.5139 59.8788 21.3844 54.026 15.5318 46.3723C11.4801 40.9697 9.45416 35.1169 10.1295 29.4892L12.1553 27.6883C14.1812 25.8875 15.7569 24.5368 17.5577 22.961C18.4581 22.5108 18.9083 22.0606 19.3585 21.6104C22.9601 18.4589 26.1115 15.7576 26.1115 9.90476V9.67966L25.8864 9.45455C25.8864 9.00433 25.4362 8.55411 24.7609 8.32901L24.3107 8.1039H23.6354L23.4103 8.32901C21.1593 9.90476 14.8565 15.7576 11.255 19.1342C11.7052 16.8831 12.3804 14.8571 12.8306 13.0563L13.2808 11.7056C14.4063 9.00433 15.0816 2.7013 12.3804 0.450217L11.9303 0H11.4801C6.75297 0 4.95218 9.00433 2.92629 21.8355C0 41.1948 5.85258 53.8009 22.5099 63.0303L13.9561 98.8225L0 99.0476V100.173C0 101.749 0.900396 104 1.80079 105.576C2.25099 106.251 2.92629 106.701 3.82668 106.701H65.2787C71.5815 106.701 74.958 104.675 75.1831 100.623C75.1831 100.173 75.1831 99.723 74.7329 99.2727ZM52.223 98.8225H22.9601L30.3884 67.3074C30.8386 67.5325 31.2888 67.5325 31.739 67.7576C36.0159 69.3333 40.2927 70.684 44.7947 69.5585L52.223 98.8225Z" fill="url(#paint1_linear)"/>
<defs>
<linearGradient id="paint0_linear" x1="32.8984" y1="32.0163" x2="50.1429" y2="32.0163" gradientUnits="userSpaceOnUse">
<stop stop-color="#DFF4FE"/>
<stop offset="1" stop-color="#8EB5FF"/>
</linearGradient>
<linearGradient id="paint1_linear" x1="-7.00197e-08" y1="53.3507" x2="75.1831" y2="53.3507" gradientUnits="userSpaceOnUse">
<stop stop-color="#DFF4FE"/>
<stop offset="1" stop-color="#8EB5FF"/>
</linearGradient>
</defs>
</svg>
