<svg width="90" height="56" viewBox="0 0 90 56" fill="none" xmlns="http://www.w3.org/2000/svg">
<path d="M86.6233 14.9828C86.983 14.4186 87.1885 13.7262 87.1885 13.0338C87.1885 12.8543 87.1628 12.6491 87.1628 12.4952C86.9059 10.7001 85.3643 9.34098 83.5402 9.34098H83.5145C82.0501 9.34098 80.7654 10.2129 80.1745 11.4695C73.2633 10.6488 68.4589 7.46894 65.8126 5.16094C66.0181 4.69934 66.1466 4.18645 66.1466 3.67356C66.1466 2.1349 65.1703 0.724455 63.7058 0.211567C62.9094 -0.0705222 61.9844 -0.0705222 61.2137 0.211567C59.7492 0.724455 58.7729 2.1349 58.7729 3.67356C58.7729 4.18645 58.8757 4.69934 59.1069 5.16094C56.4349 7.46894 51.6305 10.6745 44.6936 11.4695C44.1027 10.2129 42.8438 9.36663 41.3793 9.34098C41.3793 9.34098 41.3793 9.34098 41.3536 9.34098C39.6322 9.34098 38.1164 10.5463 37.7567 12.2388C37.7053 12.4696 37.6796 12.726 37.6796 12.9825C37.6796 13.7005 37.8852 14.3929 38.2705 14.9828C37.063 16.9317 35.727 19.7013 35.1618 22.9582C33.9543 29.9591 36.0867 40.1143 53.2491 48.8847C54.9448 49.7566 56.7946 50.6029 58.7472 51.4235V51.4491C58.7472 53.475 60.3915 55.1163 62.4212 55.1163C64.4509 55.1163 66.0952 53.475 66.0952 51.4491V51.4235C67.945 50.6541 69.7435 49.8335 71.3878 48.9873C81.5105 43.8584 87.5739 37.7037 89.398 30.6771C91.1708 24.0609 88.653 18.2652 86.6233 14.9828ZM64.6821 38.8834C64.1169 38.3192 63.3204 37.9858 62.4469 37.9858C61.5734 37.9858 60.8026 38.3192 60.2117 38.8834C59.3125 38.4474 58.2848 37.8832 57.2571 37.1139C53.7373 34.4725 51.9645 30.9849 51.9645 26.7023C51.9645 25.6508 52.1186 24.6507 52.4013 23.7019C52.8894 23.7019 53.3519 23.5736 53.7629 23.3685V23.7019V23.3685C54.842 22.8556 55.5614 21.7529 55.5614 20.4963C55.5614 19.9834 55.4329 19.5218 55.2274 19.0859C57.1029 17.3164 59.6208 16.2393 62.4212 16.2393C65.196 16.2393 67.7395 17.342 69.615 19.1115C69.4095 19.5475 69.281 20.0091 69.281 20.5219C69.281 22.2658 70.6941 23.7019 72.4412 23.7275C72.7238 24.6763 72.8779 25.6765 72.8779 26.7279C72.8779 31.0105 71.1052 34.4982 67.5854 37.1395C66.609 37.8832 65.5557 38.473 64.6821 38.8834ZM62.4469 7.31507C62.4726 7.31507 62.4983 7.31507 62.524 7.31507C63.0892 9.62307 64.0141 11.8541 65.2474 13.88C64.3481 13.6749 63.3975 13.5723 62.4469 13.5723C61.4963 13.5723 60.5457 13.6749 59.6465 13.88C60.8797 11.8541 61.8046 9.62307 62.3698 7.31507C62.3955 7.31507 62.4212 7.31507 62.4469 7.31507ZM53.7629 16.8292C53.7373 16.8548 53.7116 16.8804 53.7116 16.8804C53.6859 16.9061 53.6345 16.9317 53.6088 16.9574C53.4289 17.1112 53.2748 17.2395 53.1206 17.3677C52.8894 17.3164 52.6582 17.2908 52.4013 17.2908C52.0673 17.2908 51.7333 17.342 51.425 17.4446C49.9605 16.0598 48.3419 14.8545 46.5948 13.8544C52.17 12.9056 56.4092 10.5463 59.2354 8.41778C58.1306 11.649 56.2551 14.5468 53.7629 16.8292ZM73.5202 17.4703C73.2119 17.3677 72.8522 17.3164 72.5182 17.3164C72.2613 17.3164 72.0301 17.342 71.7989 17.3933C71.6447 17.2651 71.4906 17.1369 71.3621 17.0087L71.0024 16.7009C68.5873 14.4186 66.7375 11.572 65.6841 8.46907C68.536 10.6232 72.8266 12.9825 78.4788 13.9313C76.6804 14.8802 75.0104 16.0855 73.5202 17.4703ZM54.4823 46.5254C42.0473 40.1656 36.2922 32.1902 37.8081 23.4454C38.2962 20.6758 39.401 18.2909 40.4287 16.5984C40.7113 16.6753 41.0196 16.7009 41.3022 16.7009H41.3279C42.3556 16.7009 43.3062 16.2906 43.9742 15.5726C45.9782 16.5214 47.7767 17.778 49.421 19.3167C49.2668 19.7013 49.1897 20.086 49.1897 20.5219C49.1897 21.3169 49.4723 22.035 49.9605 22.5991C49.5237 23.907 49.2925 25.2918 49.2925 26.7279C49.2925 31.8568 51.5277 36.2163 55.7412 39.345C56.9745 40.2682 58.2077 40.9349 59.2611 41.4222C59.3382 42.6018 60.0832 43.6276 61.1109 44.0892V48.0641C60.5971 48.2692 60.1346 48.577 59.7749 48.9616C57.8994 48.1666 56.1266 47.346 54.4823 46.5254ZM86.8288 30.036C85.2102 36.2676 79.6093 41.8581 70.206 46.628C68.613 47.423 66.9174 48.2179 65.1189 48.9616C64.7592 48.577 64.2967 48.2692 63.7829 48.0641V44.0892C64.8106 43.6019 65.5557 42.6018 65.6327 41.4222C66.6861 40.9349 67.9193 40.2425 69.1526 39.345C73.3661 36.2163 75.6013 31.8568 75.6013 26.7279C75.6013 25.2918 75.3701 23.907 74.9333 22.5991C75.4215 22.035 75.7041 21.3169 75.7041 20.5219C75.7041 20.1116 75.627 19.7013 75.4729 19.3423C77.1172 17.8293 78.9413 16.5984 80.9453 15.6752C81.6133 16.3163 82.5125 16.7009 83.4888 16.7009H83.5145C83.8228 16.7009 84.1311 16.6496 84.4394 16.5727C86.2122 19.4962 88.2933 24.4455 86.8288 30.036Z" fill="url(#paint0_linear)"/>
<path d="M51.2679 23.7036C50.7244 23.7036 50.2026 23.8232 49.7351 24.0298L31.0804 5.38224C31.2869 4.91469 31.4065 4.39278 31.4065 3.84912C31.4065 1.72884 29.678 0 27.5581 0C25.4383 0 23.7098 1.72884 23.7098 3.84912C23.7098 4.39278 23.8294 4.91469 24.0359 5.38224L5.38118 24.0298C4.91372 23.8232 4.39191 23.7036 3.84836 23.7036C1.7285 23.7036 0 25.4324 0 27.5527C0 29.673 1.7285 31.4018 3.84836 31.4018C4.39191 31.4018 4.91372 31.2822 5.38118 31.0756L24.0359 49.734C23.8294 50.2016 23.7098 50.7235 23.7098 51.2672C23.7098 53.3874 25.4383 55.1163 27.5581 55.1163C29.678 55.1163 31.4065 53.3874 31.4065 51.2672C31.4065 50.7235 31.2869 50.2016 31.0804 49.734L49.7351 31.0756C50.2026 31.2822 50.7244 31.4018 51.2679 31.4018C53.3878 31.4018 55.1163 29.673 55.1163 27.5527C55.1163 25.4324 53.3986 23.7036 51.2679 23.7036ZM47.6805 26.1827L40.4512 27.9441C39.8424 27.096 38.8532 26.5415 37.7334 26.5415C36.9181 26.5415 36.1789 26.8351 35.5919 27.3135L30.8956 25.1062C30.8956 25.0736 30.8956 25.041 30.8956 24.9975C30.8956 23.6492 30.102 22.4967 28.9496 21.9639V7.41553C28.9931 7.39378 29.0366 7.38291 29.0801 7.36116L47.7348 26.0196C47.724 26.0739 47.7022 26.1283 47.6805 26.1827ZM27.5581 47.4289C27.4712 47.4289 27.3842 47.4398 27.2864 47.4398L19.9593 32.0216C20.4376 31.4453 20.7202 30.7059 20.7202 29.9013C20.7202 29.8904 20.7202 29.8904 20.7202 29.8796L25.4818 27.6397C26.0471 28.0855 26.7754 28.3573 27.5473 28.3573C28.33 28.3573 29.0583 28.0855 29.6236 27.6288L34.3852 29.8687C34.3852 29.8796 34.3852 29.8904 34.3852 29.9013C34.3852 30.7059 34.6678 31.4453 35.1461 32.0216L27.819 47.4398C27.7321 47.4289 27.6451 47.4289 27.5581 47.4289ZM26.1558 7.41553V21.9748C25.0143 22.5075 24.2099 23.6601 24.2099 25.0084C24.2099 25.0519 24.2099 25.0845 24.2207 25.128L19.5244 27.3352C18.9374 26.8459 18.1982 26.5524 17.372 26.5524C16.2522 26.5524 15.263 27.1069 14.6542 27.955L7.43581 26.1827C7.41406 26.1283 7.39232 26.0739 7.37058 26.0087L26.0253 7.35029C26.0688 7.38291 26.1123 7.40465 26.1558 7.41553ZM7.38145 29.075L14.1324 30.7277C14.502 32.1738 15.8065 33.2503 17.372 33.2503C17.3937 33.2503 17.4046 33.2503 17.4263 33.2503L22.7857 44.5258L7.37058 29.0967C7.37058 29.0858 7.38145 29.075 7.38145 29.075ZM37.6791 33.2503C37.7008 33.2503 37.7226 33.2503 37.7443 33.2503C39.3098 33.2503 40.6252 32.1738 40.9839 30.7168L47.7348 29.0641C47.7348 29.075 47.7457 29.0858 47.7457 29.0967L32.3197 44.5258L37.6791 33.2503Z" fill="url(#paint1_linear)"/>
<defs>
<linearGradient id="paint0_linear" x1="34.8792" y1="27.5526" x2="90.0181" y2="27.5526" gradientUnits="userSpaceOnUse">
<stop stop-color="#0779E4"/>
<stop offset="0.9341" stop-color="#EA2C62"/>
</linearGradient>
<linearGradient id="paint1_linear" x1="-0.00430494" y1="27.5575" x2="55.1206" y2="27.5575" gradientUnits="userSpaceOnUse">
<stop stop-color="#0779E4"/>
<stop offset="0.9341" stop-color="#1DD3BD"/>
</linearGradient>
</defs>
</svg>

