<svg width="50" height="31" viewBox="0 0 50 31" fill="none" xmlns="http://www.w3.org/2000/svg">
<path d="M47.9929 8.30174C48.1922 7.98914 48.3061 7.60549 48.3061 7.22184C48.3061 7.12238 48.2919 7.0087 48.2919 6.92345C48.1495 5.9288 47.2954 5.17571 46.2846 5.17571H46.2704C45.459 5.17571 44.7472 5.65883 44.4197 6.35508C40.5903 5.90038 37.9283 4.13844 36.462 2.85961C36.5759 2.60384 36.6471 2.31966 36.6471 2.03547C36.6471 1.18292 36.1061 0.401411 35.2947 0.117226C34.8534 -0.0390754 34.3409 -0.0390754 33.9138 0.117226C33.1024 0.401411 32.5614 1.18292 32.5614 2.03547C32.5614 2.31966 32.6184 2.60384 32.7465 2.85961C31.266 4.13844 28.6039 5.91459 24.7602 6.35508C24.4328 5.65883 23.7353 5.18992 22.9238 5.17571C22.9238 5.17571 22.9238 5.17571 22.9096 5.17571C21.9558 5.17571 21.1159 5.84355 20.9166 6.78136C20.8881 6.90924 20.8739 7.05133 20.8739 7.19342C20.8739 7.59128 20.9878 7.97493 21.2013 8.30174C20.5322 9.38165 19.792 10.9162 19.4788 12.7208C18.8097 16.5999 19.9913 22.2268 29.5007 27.0863C30.4403 27.5695 31.4653 28.0384 32.5472 28.4931V28.5073C32.5472 29.6298 33.4583 30.5392 34.5829 30.5392C35.7075 30.5392 36.6186 29.6298 36.6186 28.5073V28.4931C37.6436 28.0668 38.6401 27.6121 39.5511 27.1432C45.16 24.3013 48.5196 20.8911 49.5304 16.9978C50.5126 13.3318 49.1175 10.1205 47.9929 8.30174ZM35.8356 21.5447C35.5224 21.2321 35.0811 21.0474 34.5971 21.0474C34.1131 21.0474 33.686 21.2321 33.3586 21.5447C32.8604 21.3032 32.2909 20.9906 31.7215 20.5643C29.7712 19.1008 28.7889 17.1683 28.7889 14.7954C28.7889 14.2128 28.8744 13.6586 29.031 13.1329C29.3014 13.1329 29.5577 13.0618 29.7854 12.9482V13.1329V12.9482C30.3833 12.664 30.7819 12.053 30.7819 11.3567C30.7819 11.0725 30.7108 10.8168 30.5969 10.5752C31.6361 9.59478 33.0312 8.998 34.5829 8.998C36.1203 8.998 37.5297 9.60899 38.5689 10.5894C38.455 10.831 38.3838 11.0868 38.3838 11.3709C38.3838 12.3372 39.1668 13.1329 40.1348 13.1471C40.2914 13.6728 40.3768 14.227 40.3768 14.8096C40.3768 17.1825 39.3945 19.115 37.4443 20.5785C36.9033 20.9906 36.3196 21.3174 35.8356 21.5447ZM34.5971 4.05318C34.6113 4.05318 34.6256 4.05318 34.6398 4.05318C34.953 5.33201 35.4655 6.56822 36.1488 7.69075C35.6506 7.57707 35.1238 7.52024 34.5971 7.52024C34.0704 7.52024 33.5437 7.57707 33.0454 7.69075C33.7287 6.56822 34.2412 5.33201 34.5544 4.05318C34.5686 4.05318 34.5829 4.05318 34.5971 4.05318ZM29.7854 9.32481C29.7712 9.33902 29.757 9.35323 29.757 9.35323C29.7427 9.36744 29.7143 9.38165 29.7 9.39585C29.6004 9.48111 29.515 9.55216 29.4296 9.6232C29.3014 9.59478 29.1733 9.58057 29.031 9.58057C28.8459 9.58057 28.6608 9.60899 28.49 9.66583C27.6786 8.89853 26.7817 8.2307 25.8137 7.67654C28.9028 7.1508 31.2517 5.84355 32.8176 4.66418C32.2055 6.45454 31.1663 8.06019 29.7854 9.32481ZM40.7327 9.68004C40.5619 9.6232 40.3626 9.59478 40.1775 9.59478C40.0352 9.59478 39.907 9.60899 39.7789 9.63741C39.6935 9.56636 39.6081 9.49532 39.5369 9.42427L39.3376 9.25376C37.9994 7.98914 36.9745 6.41192 36.3908 4.6926C37.971 5.88617 40.3483 7.19342 43.4802 7.71917C42.4837 8.24491 41.5584 8.91274 40.7327 9.68004ZM30.184 25.7791C23.294 22.2552 20.1052 17.8361 20.9451 12.9908C21.2156 11.4562 21.8277 10.1347 22.3971 9.19692C22.5537 9.23955 22.7245 9.25376 22.8811 9.25376H22.8954C23.4648 9.25376 23.9915 9.02641 24.3616 8.62856C25.472 9.1543 26.4685 9.85055 27.3796 10.7031C27.2942 10.9162 27.2515 11.1294 27.2515 11.3709C27.2515 11.8114 27.4081 12.2093 27.6786 12.5219C27.4366 13.2466 27.3084 14.0139 27.3084 14.8096C27.3084 17.6514 28.5469 20.067 30.8816 21.8005C31.5649 22.312 32.2482 22.6815 32.8319 22.9515C32.8746 23.6051 33.2874 24.1735 33.8569 24.4292V26.6317C33.5721 26.7453 33.3159 26.9158 33.1166 27.129C32.0774 26.6885 31.0951 26.2338 30.184 25.7791ZM48.1068 16.6426C47.2099 20.0954 44.1066 23.193 38.8963 25.8359C38.0137 26.2764 37.0741 26.7169 36.0776 27.129C35.8783 26.9158 35.6221 26.7453 35.3374 26.6317V24.4292C35.9068 24.1592 36.3196 23.6051 36.3623 22.9515C36.946 22.6815 37.6293 22.2978 38.3126 21.8005C40.6473 20.067 41.8858 17.6514 41.8858 14.8096C41.8858 14.0139 41.7577 13.2466 41.5157 12.5219C41.7861 12.2093 41.9427 11.8114 41.9427 11.3709C41.9427 11.1436 41.9 10.9162 41.8146 10.7173C42.7257 9.87897 43.7364 9.19693 44.8468 8.68539C45.2169 9.04062 45.7152 9.25376 46.2562 9.25376H46.2704C46.4412 9.25376 46.612 9.22534 46.7829 9.18272C47.7651 10.8026 48.9182 13.5449 48.1068 16.6426Z" fill="url(#paint0_linear)"/>
<path d="M28.4069 13.1338C28.1057 13.1338 27.8166 13.2001 27.5576 13.3146L17.2212 2.98223C17.3357 2.72316 17.4019 2.43398 17.4019 2.13274C17.4019 0.957927 16.4442 0 15.2696 0C14.095 0 13.1373 0.957927 13.1373 2.13274C13.1373 2.43398 13.2035 2.72316 13.318 2.98223L2.98164 13.3146C2.72263 13.2001 2.4335 13.1338 2.13232 13.1338C0.957738 13.1338 0 14.0918 0 15.2666C0 16.4414 0.957738 17.3993 2.13232 17.3993C2.4335 17.3993 2.72263 17.3331 2.98164 17.2186L13.318 27.557C13.2035 27.816 13.1373 28.1052 13.1373 28.4064C13.1373 29.5813 14.095 30.5392 15.2696 30.5392C16.4442 30.5392 17.4019 29.5813 17.4019 28.4064C17.4019 28.1052 17.3357 27.816 17.2212 27.557L27.5576 17.2186C27.8166 17.3331 28.1057 17.3993 28.4069 17.3993C29.5814 17.3993 30.5392 16.4414 30.5392 15.2666C30.5392 14.0918 29.5875 13.1338 28.4069 13.1338ZM26.4191 14.5075L22.4135 15.4835C22.0762 15.0135 21.528 14.7063 20.9076 14.7063C20.4558 14.7063 20.0462 14.869 19.721 15.134L17.1188 13.911C17.1188 13.893 17.1188 13.8749 17.1188 13.8508C17.1188 13.1037 16.6791 12.4651 16.0406 12.1699V4.10884C16.0647 4.09679 16.0888 4.09077 16.1129 4.07872L26.4492 14.4171C26.4432 14.4472 26.4312 14.4773 26.4191 14.5075ZM15.2696 26.2797C15.2214 26.2797 15.1732 26.2858 15.119 26.2858L11.0592 17.7427C11.3242 17.4234 11.4808 17.0137 11.4808 16.5679C11.4808 16.5619 11.4808 16.5619 11.4808 16.5559L14.1191 15.3148C14.4323 15.5618 14.8359 15.7124 15.2636 15.7124C15.6973 15.7124 16.1008 15.5618 16.4141 15.3088L19.0524 16.5498C19.0524 16.5559 19.0524 16.5619 19.0524 16.5679C19.0524 17.0137 19.209 17.4234 19.474 17.7427L15.4142 26.2858C15.366 26.2797 15.3178 26.2797 15.2696 26.2797ZM14.4926 4.10884V12.1759C13.8601 12.4711 13.4144 13.1097 13.4144 13.8568C13.4144 13.8809 13.4144 13.899 13.4204 13.9231L10.8182 15.1461C10.493 14.875 10.0834 14.7123 9.62557 14.7123C9.00515 14.7123 8.45701 15.0196 8.11969 15.4895L4.12008 14.5075C4.10803 14.4773 4.09599 14.4472 4.08394 14.4111L14.4203 4.0727C14.4444 4.09077 14.4685 4.10282 14.4926 4.10884ZM4.08996 16.11L7.83056 17.0258C8.03536 17.8271 8.75818 18.4235 9.62557 18.4235C9.63761 18.4235 9.64364 18.4235 9.65568 18.4235L12.6253 24.6711L4.08394 16.1221C4.08394 16.1161 4.08996 16.11 4.08996 16.11ZM20.8775 18.4235C20.8895 18.4235 20.9016 18.4235 20.9136 18.4235C21.781 18.4235 22.5099 17.8271 22.7086 17.0198L26.4492 16.104C26.4492 16.11 26.4553 16.1161 26.4553 16.1221L17.9079 24.6711L20.8775 18.4235Z" fill="url(#paint1_linear)"/>
<defs>
<linearGradient id="paint0_linear" x1="19.3222" y1="15.2665" x2="49.8739" y2="15.2665" gradientUnits="userSpaceOnUse">
<stop stop-color="#0FA2F5"/>
<stop offset="0.9341" stop-color="#F34692"/>
</linearGradient>
<linearGradient id="paint1_linear" x1="-0.00238531" y1="15.2692" x2="30.5416" y2="15.2692" gradientUnits="userSpaceOnUse">
<stop stop-color="#0BADF4"/>
<stop offset="0.9341" stop-color="#30EFE4"/>
</linearGradient>
</defs>
</svg>


