<svg width="363" height="38" viewBox="0 0 363 38" fill="none" xmlns="http://www.w3.org/2000/svg">
<g clip-path="url(#clip0)">
<path d="M0 0.969422C0 0.758545 0.16868 0.589844 0.379531 0.589844H12.4823C16.1511 0.589844 19.2717 1.349 21.8863 2.86731C24.5008 4.38563 26.4828 6.57875 27.8322 9.32014C29.1817 12.0615 29.8986 15.309 29.8986 18.9783C29.8986 22.7741 29.2239 26.0638 27.8322 28.8473C26.4406 31.5887 24.4586 33.6975 21.8441 35.1736C19.2296 36.6498 16.109 37.3668 12.4823 37.3668H0.379531C0.16868 37.3668 0 37.1981 0 36.9872V0.969422ZM11.9763 33.2758C14.3378 33.2758 16.4042 32.9383 18.1331 32.2635C19.8621 31.5887 21.1272 30.6187 21.9706 29.3956C22.8983 28.046 23.5731 26.612 23.9526 25.0094C24.3743 23.4067 24.5852 21.4245 24.5852 19.0205C24.5852 16.6165 24.3743 14.6342 23.9526 13.0316C23.5309 11.4289 22.8562 9.99495 21.9706 8.68751C21.085 7.42225 19.7778 6.41004 18.0488 5.73524C16.3198 5.06043 14.2957 4.72303 12.0185 4.72303H5.06041C4.84956 4.72303 4.68088 4.89173 4.68088 5.10261V32.9383C4.68088 33.1492 4.84956 33.3179 5.06041 33.3179H11.9763V33.2758Z" fill="white"/>
<path d="M36.0983 0.632812H61.4003C61.6112 0.632812 61.7799 0.801514 61.7799 1.01239V4.55512C61.7799 4.766 61.6112 4.9347 61.4003 4.9347H40.8213C40.6105 4.9347 40.4418 5.1034 40.4418 5.31428V13.1589C40.4418 13.3698 40.6105 13.5385 40.8213 13.5385H59.4605C59.6714 13.5385 59.84 13.7072 59.84 13.9181V17.4608C59.84 17.6717 59.6714 17.8404 59.4605 17.8404H40.4418H36.0983C35.8874 17.8404 35.7188 17.6717 35.7188 17.4608V0.970215C35.7188 0.801514 35.8874 0.632812 36.0983 0.632812Z" fill="white"/>
<path d="M35.7188 21.2975C35.7188 21.0867 35.8874 20.918 36.0983 20.918H40.4418H59.4605C59.6714 20.918 59.84 21.0867 59.84 21.2975V24.8403C59.84 25.0512 59.6714 25.2199 59.4605 25.2199H40.8213C40.6105 25.2199 40.4418 25.3886 40.4418 25.5994V32.7692C40.4418 32.9801 40.6105 33.1488 40.8213 33.1488H61.4003C61.6112 33.1488 61.7799 33.3175 61.7799 33.5284V37.0711C61.7799 37.282 61.6112 37.4507 61.4003 37.4507H36.0983C35.8874 37.4507 35.7188 37.282 35.7188 37.0711V21.2975Z" fill="white"/>
<path d="M71.2664 34.7097C68.8206 32.5166 67.5977 29.3534 67.5977 25.2203V0.969422C67.5977 0.758545 67.7663 0.589844 67.9772 0.589844H72.0255C72.2364 0.589844 72.405 0.758545 72.405 0.969422V25.2203C72.405 27.076 72.8267 28.6786 73.7123 29.9439C74.5557 31.2513 75.7365 32.1792 77.1703 32.8118C78.604 33.4445 80.2065 33.7397 81.9776 33.7397C83.7066 33.7397 85.3091 33.4445 86.785 32.8118C88.261 32.1792 89.3996 31.2092 90.2851 29.9439C91.1707 28.6365 91.5924 27.076 91.5924 25.2203V0.969422C91.5924 0.758545 91.7611 0.589844 91.9719 0.589844H96.0203C96.2311 0.589844 96.3998 0.758545 96.3998 0.969422V25.2203C96.3998 29.3534 95.1769 32.4744 92.731 34.6675C90.2851 36.8607 86.7007 37.9572 82.062 37.9572C77.4233 37.9572 73.7123 36.9028 71.2664 34.7097Z" fill="white"/>
<path d="M108.927 36.6074C106.65 35.6796 104.795 34.2456 103.445 32.3477C102.138 30.5342 101.463 28.3411 101.379 25.7262C101.379 25.5575 101.505 25.3888 101.716 25.3466L106.018 24.9248C106.228 24.8827 106.397 25.0514 106.397 25.2623C106.439 26.9914 106.861 28.5098 107.704 29.775C108.548 31.1246 109.771 32.179 111.247 32.896C112.765 33.613 114.452 33.9925 116.391 33.9925C119.386 33.9925 121.831 33.4443 123.687 32.3477C125.542 31.2512 126.47 29.4798 126.47 26.9914C126.47 25.7262 126.091 24.714 125.332 23.997C124.572 23.28 123.603 22.7317 122.464 22.3943C121.325 22.0569 119.765 21.7195 117.825 21.3821C116.307 21.1291 115.211 20.876 114.452 20.7073C112.048 20.159 110.024 19.4842 108.337 18.7672C106.65 18.0503 105.259 16.9959 104.12 15.6463C102.981 14.2545 102.433 12.4831 102.433 10.29C102.433 7.92818 103.066 5.98811 104.331 4.42762C105.596 2.86713 107.241 1.77057 109.223 1.05359C111.205 0.336609 113.271 -0.0429688 115.422 -0.0429688C119.554 -0.0429688 122.928 0.884889 125.585 2.74061C128.157 4.55415 129.633 7.42207 130.055 11.3444C130.055 11.5131 129.928 11.724 129.759 11.724L125.542 12.4831C125.332 12.5253 125.121 12.3566 125.121 12.1457C125.036 10.5009 124.615 9.06691 123.898 7.886C123.096 6.57856 122 5.60853 120.524 4.93372C119.09 4.25892 117.319 3.92152 115.337 3.92152C114.072 3.92152 112.807 4.13239 111.584 4.59632C110.361 5.06025 109.307 5.73506 108.506 6.70509C107.747 7.59077 107.325 8.68733 107.283 9.95259C107.241 11.26 107.831 12.5253 108.843 13.3688C109.813 14.1701 111.078 14.8028 112.554 15.2245C114.072 15.6884 115.843 16.068 117.867 16.3632C120.904 16.8272 123.307 17.3755 125.163 17.9659C126.976 18.5564 128.494 19.5264 129.675 20.9182C130.856 22.2678 131.446 24.1657 131.446 26.654C131.446 29.4376 130.729 31.7151 129.338 33.3599C127.946 35.0469 126.133 36.2278 123.898 36.9448C121.705 37.6618 119.259 37.9992 116.644 37.9992C113.777 37.9992 111.205 37.5353 108.927 36.6074Z" fill="white"/>
<path d="M150.883 0.632812H173.865C174.076 0.632812 174.245 0.801514 174.245 1.01239V4.55512C174.245 4.766 174.076 4.9347 173.865 4.9347H155.606C155.395 4.9347 155.226 5.1034 155.226 5.31428V16.4064C155.226 16.6173 155.395 16.786 155.606 16.786H171.926C172.136 16.786 172.305 16.9547 172.305 17.1656V20.7083C172.305 20.9192 172.136 21.0879 171.926 21.0879H155.606C155.395 21.0879 155.226 21.2566 155.226 21.4674V37.1567C155.226 37.3675 155.057 37.5363 154.847 37.5363H150.84C150.63 37.5363 150.461 37.3675 150.461 37.1567V0.970215C150.503 0.759339 150.672 0.632812 150.883 0.632812Z" fill="white"/>
<path d="M180.106 0.632812H184.154C184.365 0.632812 184.534 0.801514 184.534 1.01239V36.988C184.534 37.1988 184.365 37.3675 184.154 37.3675H180.106C179.895 37.3675 179.727 37.1988 179.727 36.988V0.970215C179.769 0.759339 179.937 0.632812 180.106 0.632812Z" fill="white"/>
<path d="M193.683 0.632019H198.196C198.322 0.632019 198.449 0.71637 198.491 0.800721L212.154 22.8163C212.829 23.8706 213.503 25.0094 214.22 26.3168C214.937 27.6243 215.781 29.1847 216.75 31.0826H216.835C216.75 29.733 216.666 28.046 216.624 26.1059C216.582 24.1237 216.54 22.6897 216.54 21.7619V0.969422C216.54 0.758545 216.708 0.589844 216.919 0.589844H220.883C221.094 0.589844 221.263 0.758545 221.263 0.969422V36.945C221.263 37.1559 221.094 37.3246 220.883 37.3246H216.076C215.949 37.3246 215.823 37.2402 215.781 37.1559L202.244 15.1403C201.78 14.4234 201.105 13.2003 200.178 11.4711C199.25 9.7419 198.449 8.18141 197.732 6.8318H197.69C197.774 8.39229 197.816 10.1215 197.858 11.9772C197.9 13.8329 197.943 15.2247 197.943 16.1526V36.9028C197.943 37.1137 197.774 37.2824 197.563 37.2824H193.641C193.43 37.2824 193.262 37.1137 193.262 36.9028V0.969422C193.346 0.758545 193.515 0.632019 193.683 0.632019Z" fill="white"/>
<path d="M250.7 26.3598H235.646C235.477 26.3598 235.35 26.4441 235.308 26.6128L231.428 37.1145C231.386 37.241 231.26 37.3675 231.091 37.3675H226.832C226.579 37.3675 226.41 37.1145 226.495 36.8614L240.579 0.843689C240.622 0.717163 240.748 0.632812 240.917 0.632812H245.471C245.64 0.632812 245.766 0.717163 245.808 0.843689L259.851 36.8193C259.935 37.0723 259.767 37.3254 259.514 37.3254H255.297C255.128 37.3254 255.002 37.241 254.959 37.0723L251.038 26.5707C250.953 26.4441 250.827 26.3598 250.7 26.3598ZM248.845 22.1844C249.098 22.1844 249.266 21.9314 249.182 21.6783L245.218 11.0923C244.417 8.85701 243.7 6.91694 243.152 5.18775H243.067C242.604 6.70606 241.929 8.64613 241.043 11.0923L237.121 21.6783C237.037 21.9314 237.206 22.1844 237.459 22.1844H248.845Z" fill="white"/>
<path d="M265.418 0.632019H269.93C270.056 0.632019 270.183 0.71637 270.225 0.800721L283.888 22.8163C284.563 23.8706 285.238 25.0094 285.955 26.3168C286.672 27.6243 287.515 29.1847 288.485 31.0826H288.569C288.485 29.733 288.4 28.046 288.358 26.1059C288.316 24.1237 288.274 22.6897 288.274 21.7619V0.969422C288.274 0.758545 288.443 0.589844 288.654 0.589844H292.618C292.828 0.589844 292.997 0.758545 292.997 0.969422V36.945C292.997 37.1559 292.828 37.3246 292.618 37.3246H287.81C287.684 37.3246 287.557 37.2402 287.515 37.1559L273.978 15.1403C273.514 14.4234 272.84 13.2003 271.912 11.4711C270.984 9.7419 270.183 8.18141 269.466 6.8318H269.424C269.508 8.39229 269.55 10.1215 269.593 11.9772C269.635 13.8329 269.677 15.2247 269.677 16.1526V36.9028C269.677 37.1137 269.508 37.2824 269.297 37.2824H265.376C265.165 37.2824 264.996 37.1137 264.996 36.9028V0.969422C265.038 0.758545 265.207 0.632019 265.418 0.632019Z" fill="white"/>
<path d="M307.923 35.7647C305.309 34.2886 303.327 32.1376 301.977 29.3119C300.628 26.4861 299.953 23.0277 299.953 18.9789C299.953 15.2253 300.628 11.9356 301.977 9.0677C303.327 6.19978 305.309 3.96448 307.923 2.404C310.538 0.801332 313.701 0 317.369 0C319.9 0 322.261 0.421754 324.412 1.30744C326.562 2.15094 328.418 3.45838 329.936 5.18757C331.37 6.83241 332.466 8.77248 333.099 11.1343C333.141 11.3452 333.014 11.556 332.804 11.5982L328.334 12.4417C328.165 12.4839 327.954 12.3574 327.912 12.1887C327.532 10.7969 326.9 9.48946 326.014 8.30855C325.086 7.04329 323.864 6.03108 322.43 5.27192C320.954 4.51276 319.309 4.13319 317.412 4.13319C315.261 4.13319 313.405 4.47059 311.761 5.18757C310.158 5.86238 308.851 6.91676 307.839 8.26637C306.953 9.53163 306.279 11.0499 305.857 12.8213C305.435 14.5927 305.224 16.6593 305.224 19.0211C305.224 21.4251 305.435 23.4917 305.857 25.263C306.279 27.0344 306.953 28.5527 307.839 29.818C308.767 31.1676 310.074 32.1798 311.676 32.8546C313.279 33.5716 315.177 33.909 317.285 33.909C320.068 33.909 322.388 33.192 324.159 31.758C325.888 30.4084 327.153 28.6371 327.954 26.444C328.038 26.2753 328.207 26.1909 328.376 26.2331L333.057 27.4562C333.267 27.4983 333.394 27.7514 333.31 27.9623C331.834 31.1676 329.767 33.6138 327.153 35.343C324.412 37.1143 321.122 38.0422 317.285 38.0422C313.701 37.9578 310.538 37.2408 307.923 35.7647Z" fill="white"/>
<path d="M339.637 0.632812H362.62C362.831 0.632812 363 0.801514 363 1.01239V4.55512C363 4.766 362.831 4.9347 362.62 4.9347H344.36C344.15 4.9347 343.981 5.1034 343.981 5.31428V16.4064C343.981 16.6173 344.15 16.786 344.36 16.786H360.68C360.891 16.786 361.06 16.9547 361.06 17.1656V20.7083C361.06 20.9192 360.891 21.0879 360.68 21.0879H344.36C344.15 21.0879 343.981 21.2566 343.981 21.4674V32.897C343.981 33.1078 344.15 33.2765 344.36 33.2765H362.62C362.831 33.2765 363 33.4452 363 33.6561V37.1989C363 37.4097 362.831 37.5784 362.62 37.5784H339.637C339.427 37.5784 339.258 37.4097 339.258 37.1989V0.970215C339.3 0.759339 339.427 0.632812 339.637 0.632812Z" fill="white"/>
</g>
<defs>
<clipPath id="clip0">
<rect width="363" height="38" fill="white"/>
</clipPath>
</defs>
</svg>
